<svg width="32" height="32" viewBox="0 0 32 32" fill="none" xmlns="http://www.w3.org/2000/svg">
<rect x="3" y="4" width="26" height="25" rx="3" fill="#3B82F6"/>
<path d="M23.75 10C23.75 14.861 20.2533 18.75 16 18.75C11.7467 18.75 8.25 14.861 8.25 10C8.25 5.13901 11.7467 1.25 16 1.25C20.2533 1.25 23.75 5.13901 23.75 10Z" stroke="black" stroke-width="0.5"/>
<path d="M23.75 9C23.75 13.861 20.2533 17.75 16 17.75C11.7467 17.75 8.25 13.861 8.25 9C8.25 4.13901 11.7467 0.25 16 0.25C20.2533 0.25 23.75 4.13901 23.75 9Z" stroke="black" stroke-width="0.5"/>
<path d="M8 11H24V19H8V11Z" fill="#3B82F6"/>
<circle cx="8.5" cy="10.5" r="1.5" fill="#0B63F3"/>
<circle cx="23.5" cy="10.5" r="1.5" fill="#0B63F3"/>
<path d="M13.655 13.222C15.1963 13.222 16.4147 13.4373 17.31 13.868C18.2167 14.2873 18.9023 14.7577 19.367 15.279C19.741 15.7097 20.047 16.2083 20.285 16.775C20.523 17.3303 20.642 17.999 20.642 18.781C20.642 19.359 20.5117 19.9653 20.251 20.6C19.9903 21.2233 19.6503 21.7277 19.231 22.113C18.789 22.5323 18.3697 22.8723 17.973 23.133C17.5877 23.3937 17.0607 23.609 16.392 23.779C15.7347 23.9377 14.896 24.017 13.876 24.017C13.1053 24.017 12.4083 23.932 11.785 23.762C11.1617 23.5807 10.85 23.2803 10.85 22.861C10.85 22.691 10.9237 22.5607 11.071 22.47C11.2297 22.368 11.3997 22.317 11.581 22.317C11.683 22.317 11.751 22.3227 11.785 22.334C11.8643 21.586 11.904 20.7927 11.904 19.954C11.904 19.0133 11.8813 18.237 11.836 17.625C11.7907 17.0017 11.7283 16.384 11.649 15.772C11.6377 15.6927 11.6093 15.4717 11.564 15.109C11.53 14.7463 11.513 14.378 11.513 14.004C11.513 13.766 11.632 13.5677 11.87 13.409C12.108 13.239 12.3517 13.154 12.601 13.154C12.7483 13.154 12.9467 13.1653 13.196 13.188C13.4 13.2107 13.553 13.222 13.655 13.222ZM13.434 22.419C13.706 22.4643 14.063 22.487 14.505 22.487C15.253 22.487 15.9613 22.334 16.63 22.028C17.2987 21.7107 17.837 21.2743 18.245 20.719C18.653 20.1523 18.857 19.5007 18.857 18.764C18.857 17.9933 18.721 17.336 18.449 16.792C18.177 16.248 17.7577 15.8003 17.191 15.449C16.7717 15.1883 16.256 15.0013 15.644 14.888C15.032 14.7633 14.2953 14.701 13.434 14.701C13.434 14.973 13.451 15.313 13.485 15.721C13.485 15.857 13.4963 16.095 13.519 16.435C13.587 17.7497 13.621 18.8093 13.621 19.614C13.621 20.7813 13.5587 21.7163 13.434 22.419Z" fill="white"/>
</svg>
